<mxfile host="www.draw.io" modified="2020-08-08T09:02:07.542Z" agent="5.0 (Windows NT 10.0; WOW64) AppleWebKit/537.36 (KHTML, like Gecko) Chrome/73.0.3683.86 Safari/537.36" etag="4I1uBBdNZWvJFmhnAQa5" version="13.5.8" type="gitlab">
  <diagram id="tdOz4gZHpzaeTPdN0TwH" name="第 1 页">
    <mxGraphModel dx="936" dy="576" grid="1" gridSize="10" guides="1" tooltips="1" connect="1" arrows="1" fold="1" page="1" pageScale="1" pageWidth="827" pageHeight="1169" math="0" shadow="0">
      <root>
        <mxCell id="0" />
        <mxCell id="1" parent="0" />
        <mxCell id="CvaFJNF3e0eBqv7Cqhzd-1" value="" style="ellipse;whiteSpace=wrap;html=1;aspect=fixed;" vertex="1" parent="1">
          <mxGeometry x="110" y="100" width="30" height="30" as="geometry" />
        </mxCell>
        <mxCell id="CvaFJNF3e0eBqv7Cqhzd-2" value="A" style="text;html=1;strokeColor=none;fillColor=none;align=center;verticalAlign=middle;whiteSpace=wrap;rounded=0;" vertex="1" parent="1">
          <mxGeometry x="195" y="105" width="40" height="20" as="geometry" />
        </mxCell>
        <mxCell id="CvaFJNF3e0eBqv7Cqhzd-6" value="A" style="text;html=1;strokeColor=none;fillColor=none;align=center;verticalAlign=middle;whiteSpace=wrap;rounded=0;" vertex="1" parent="1">
          <mxGeometry x="105" y="105" width="40" height="20" as="geometry" />
        </mxCell>
        <mxCell id="CvaFJNF3e0eBqv7Cqhzd-7" value="B" style="ellipse;whiteSpace=wrap;html=1;aspect=fixed;" vertex="1" parent="1">
          <mxGeometry x="200" y="100" width="30" height="30" as="geometry" />
        </mxCell>
        <mxCell id="CvaFJNF3e0eBqv7Cqhzd-8" value="A" style="ellipse;whiteSpace=wrap;html=1;aspect=fixed;" vertex="1" parent="1">
          <mxGeometry x="200" y="190" width="30" height="30" as="geometry" />
        </mxCell>
        <mxCell id="CvaFJNF3e0eBqv7Cqhzd-9" value="C" style="ellipse;whiteSpace=wrap;html=1;aspect=fixed;" vertex="1" parent="1">
          <mxGeometry x="290" y="100" width="30" height="30" as="geometry" />
        </mxCell>
        <mxCell id="CvaFJNF3e0eBqv7Cqhzd-10" value="D" style="ellipse;whiteSpace=wrap;html=1;aspect=fixed;" vertex="1" parent="1">
          <mxGeometry x="383.5" y="105" width="30" height="30" as="geometry" />
        </mxCell>
        <mxCell id="CvaFJNF3e0eBqv7Cqhzd-11" value="B" style="ellipse;whiteSpace=wrap;html=1;aspect=fixed;" vertex="1" parent="1">
          <mxGeometry x="105" y="190" width="30" height="30" as="geometry" />
        </mxCell>
        <mxCell id="CvaFJNF3e0eBqv7Cqhzd-14" value="D" style="ellipse;whiteSpace=wrap;html=1;aspect=fixed;" vertex="1" parent="1">
          <mxGeometry x="290" y="190" width="30" height="30" as="geometry" />
        </mxCell>
        <mxCell id="CvaFJNF3e0eBqv7Cqhzd-15" value="C" style="ellipse;whiteSpace=wrap;html=1;aspect=fixed;" vertex="1" parent="1">
          <mxGeometry x="383.5" y="190" width="30" height="30" as="geometry" />
        </mxCell>
        <mxCell id="CvaFJNF3e0eBqv7Cqhzd-16" value="旧" style="text;html=1;strokeColor=none;fillColor=none;align=center;verticalAlign=middle;whiteSpace=wrap;rounded=0;fontStyle=1;fontColor=#FF0000;" vertex="1" parent="1">
          <mxGeometry x="30" y="100" width="40" height="30" as="geometry" />
        </mxCell>
        <mxCell id="CvaFJNF3e0eBqv7Cqhzd-17" value="新" style="text;html=1;strokeColor=none;fillColor=none;align=center;verticalAlign=middle;whiteSpace=wrap;rounded=0;fontStyle=1;fontColor=#FF0000;" vertex="1" parent="1">
          <mxGeometry x="30" y="200" width="40" height="30" as="geometry" />
        </mxCell>
        <mxCell id="CvaFJNF3e0eBqv7Cqhzd-18" value="key=a" style="text;html=1;strokeColor=none;fillColor=none;align=center;verticalAlign=middle;whiteSpace=wrap;rounded=0;fontColor=#FF0000;" vertex="1" parent="1">
          <mxGeometry x="110" y="150" width="40" height="20" as="geometry" />
        </mxCell>
        <mxCell id="CvaFJNF3e0eBqv7Cqhzd-19" value="key=b" style="text;html=1;strokeColor=none;fillColor=none;align=center;verticalAlign=middle;whiteSpace=wrap;rounded=0;fontColor=#FF0000;" vertex="1" parent="1">
          <mxGeometry x="195" y="150" width="40" height="20" as="geometry" />
        </mxCell>
        <mxCell id="CvaFJNF3e0eBqv7Cqhzd-20" value="key=c" style="text;html=1;strokeColor=none;fillColor=none;align=center;verticalAlign=middle;whiteSpace=wrap;rounded=0;fontColor=#FF0000;" vertex="1" parent="1">
          <mxGeometry x="285" y="150" width="40" height="20" as="geometry" />
        </mxCell>
        <mxCell id="CvaFJNF3e0eBqv7Cqhzd-21" value="key=d" style="text;html=1;strokeColor=none;fillColor=none;align=center;verticalAlign=middle;whiteSpace=wrap;rounded=0;fontColor=#FF0000;" vertex="1" parent="1">
          <mxGeometry x="383.5" y="150" width="40" height="20" as="geometry" />
        </mxCell>
        <mxCell id="CvaFJNF3e0eBqv7Cqhzd-22" value="key=b" style="text;html=1;strokeColor=none;fillColor=none;align=center;verticalAlign=middle;whiteSpace=wrap;rounded=0;fontColor=#FF0000;" vertex="1" parent="1">
          <mxGeometry x="110" y="250" width="40" height="20" as="geometry" />
        </mxCell>
        <mxCell id="CvaFJNF3e0eBqv7Cqhzd-23" value="key=c" style="text;html=1;strokeColor=none;fillColor=none;align=center;verticalAlign=middle;whiteSpace=wrap;rounded=0;fontColor=#FF0000;" vertex="1" parent="1">
          <mxGeometry x="383.5" y="250" width="40" height="20" as="geometry" />
        </mxCell>
        <mxCell id="CvaFJNF3e0eBqv7Cqhzd-24" value="key=d" style="text;html=1;strokeColor=none;fillColor=none;align=center;verticalAlign=middle;whiteSpace=wrap;rounded=0;fontColor=#FF0000;" vertex="1" parent="1">
          <mxGeometry x="285" y="250" width="40" height="20" as="geometry" />
        </mxCell>
        <mxCell id="CvaFJNF3e0eBqv7Cqhzd-25" value="key=a" style="text;html=1;strokeColor=none;fillColor=none;align=center;verticalAlign=middle;whiteSpace=wrap;rounded=0;fontColor=#FF0000;" vertex="1" parent="1">
          <mxGeometry x="195" y="250" width="40" height="20" as="geometry" />
        </mxCell>
        <mxCell id="CvaFJNF3e0eBqv7Cqhzd-26" value="" style="endArrow=classic;html=1;fontColor=#FF0000;" edge="1" parent="1">
          <mxGeometry width="50" height="50" relative="1" as="geometry">
            <mxPoint x="120" y="90" as="sourcePoint" />
            <mxPoint x="260" y="110" as="targetPoint" />
            <Array as="points">
              <mxPoint x="160" y="60" />
              <mxPoint x="220" y="60" />
            </Array>
          </mxGeometry>
        </mxCell>
        <mxCell id="CvaFJNF3e0eBqv7Cqhzd-27" value="" style="endArrow=classic;html=1;fontColor=#FF0000;" edge="1" parent="1">
          <mxGeometry width="50" height="50" relative="1" as="geometry">
            <mxPoint x="310" y="90" as="sourcePoint" />
            <mxPoint x="450" y="110" as="targetPoint" />
            <Array as="points">
              <mxPoint x="350" y="60" />
              <mxPoint x="410" y="60" />
            </Array>
          </mxGeometry>
        </mxCell>
        <mxCell id="CvaFJNF3e0eBqv7Cqhzd-28" value="" style="endArrow=classic;html=1;fontColor=#FF0000;" edge="1" parent="1">
          <mxGeometry width="50" height="50" relative="1" as="geometry">
            <mxPoint x="195" y="130" as="sourcePoint" />
            <mxPoint x="145" y="190" as="targetPoint" />
          </mxGeometry>
        </mxCell>
        <mxCell id="CvaFJNF3e0eBqv7Cqhzd-30" value="" style="endArrow=classic;html=1;fontColor=#FF0000;" edge="1" parent="1">
          <mxGeometry width="50" height="50" relative="1" as="geometry">
            <mxPoint x="380" y="130" as="sourcePoint" />
            <mxPoint x="320" y="190" as="targetPoint" />
          </mxGeometry>
        </mxCell>
      </root>
    </mxGraphModel>
  </diagram>
</mxfile>
